<svg width="800" height="400" viewBox="0 0 800 400" xmlns="http://www.w3.org/2000/svg"><defs><pattern id="satori_pattern_id_0" x="0" y="0" width="1" height="1" patternUnits="objectBoundingBox"><linearGradient id="satori_biid_0" x1="0" y1="0" x2="0" y2="1"><stop offset="0%" stop-color="#dbf4ff"></stop><stop offset="100%" stop-color="#fff1f1"></stop></linearGradient><rect x="0" y="0" width="800" height="400" fill="url(#satori_biid_0)"></rect></pattern></defs><rect x="0" y="0" width="800" height="400" fill="url(#satori_pattern_id_0)"></rect><clipPath id="satori_bct-id-0"><path d="M115.4 192.2L96.8 192.2L96.8 148.5L114.3 148.5Q119.1 148.5 122.3 150.0Q125.5 151.4 127.1 153.9Q128.8 156.4 128.8 159.7L128.8 159.7Q128.8 162.3 127.7 164.2Q126.7 166.1 124.9 167.3Q123.1 168.6 120.9 169.1L120.9 169.1L120.9 169.5Q123.4 169.6 125.5 170.9Q127.7 172.2 129.1 174.6Q130.5 176.9 130.5 180.1L130.5 180.1Q130.5 183.6 128.7 186.3Q127.0 189.0 123.7 190.6Q120.3 192.2 115.4 192.2L115.4 192.2ZM106.0 173.0L106.0 184.6L113.5 184.6Q117.4 184.6 119.2 183.1Q120.9 181.7 120.9 179.2L120.9 179.2Q120.9 177.4 120.1 176.0Q119.2 174.6 117.6 173.8Q116.0 173.0 113.8 173.0L113.8 173.0L106.0 173.0ZM106.0 156.0L106.0 166.8L112.9 166.8Q114.8 166.8 116.2 166.1Q117.7 165.4 118.6 164.2Q119.4 163.0 119.4 161.2L119.4 161.2Q119.4 158.9 117.8 157.4Q116.1 156.0 113.0 156.0L113.0 156.0L106.0 156.0ZM155.3 178.2L155.3 178.2L155.3 159.4L164.3 159.4L164.3 192.2L155.6 192.2L155.6 186.2L155.3 186.2Q154.2 189.1 151.6 190.8Q149.0 192.6 145.4 192.6L145.4 192.6Q142.1 192.6 139.6 191.1Q137.1 189.6 135.7 186.9Q134.3 184.1 134.3 180.3L134.3 180.3L134.3 159.4L143.4 159.4L143.4 178.7Q143.4 181.5 144.9 183.2Q146.4 184.9 149.0 184.9L149.0 184.9Q150.7 184.9 152.1 184.2Q153.5 183.4 154.4 181.9Q155.3 180.4 155.3 178.2ZM178.7 192.2L169.6 192.2L169.6 159.4L178.7 159.4L178.7 192.2ZM174.1 155.2L174.1 155.2Q172.1 155.2 170.7 153.9Q169.2 152.5 169.2 150.6L169.2 150.6Q169.2 148.7 170.7 147.4Q172.1 146.0 174.1 146.0L174.1 146.0Q176.2 146.0 177.6 147.4Q179.0 148.7 179.0 150.6L179.0 150.6Q179.0 152.5 177.6 153.9Q176.2 155.2 174.1 155.2ZM183.9 148.5L193.0 148.5L193.0 192.2L183.9 192.2L183.9 148.5ZM210.3 192.7L210.3 192.7Q206.6 192.7 203.5 190.8Q200.5 188.8 198.8 185.1Q197.0 181.3 197.0 175.8L197.0 175.8Q197.0 170.2 198.8 166.5Q200.6 162.7 203.6 160.9Q206.7 159.0 210.3 159.0L210.3 159.0Q213.0 159.0 214.9 159.9Q216.7 160.9 217.8 162.2Q219.0 163.6 219.6 164.9L219.6 164.9L219.9 164.9L219.9 148.5L228.9 148.5L228.9 192.2L220.0 192.2L220.0 186.9L219.6 186.9Q218.9 188.3 217.8 189.6Q216.6 190.9 214.8 191.8Q212.9 192.7 210.3 192.7ZM213.2 185.5L213.2 185.5Q215.4 185.5 216.9 184.3Q218.4 183.1 219.2 180.9Q220.0 178.7 220.0 175.8L220.0 175.8Q220.0 172.9 219.2 170.7Q218.4 168.6 216.9 167.4Q215.4 166.2 213.2 166.2L213.2 166.2Q210.9 166.2 209.4 167.4Q207.9 168.7 207.1 170.8Q206.3 173.0 206.3 175.8L206.3 175.8Q206.3 178.7 207.1 180.8Q207.9 183.0 209.4 184.2Q210.9 185.5 213.2 185.5Z M265.2 192.2L256.2 192.2L243.8 148.5L253.8 148.5L261.1 178.8L261.4 178.8L269.4 148.5L278.0 148.5L286.0 178.9L286.4 178.9L293.6 148.5L303.7 148.5L291.2 192.2L282.2 192.2L273.9 163.6L273.5 163.6L265.2 192.2ZM317.8 192.8L317.8 192.8Q312.7 192.8 309.1 190.7Q305.5 188.7 303.5 184.9Q301.5 181.1 301.5 175.9L301.5 175.9Q301.5 170.9 303.5 167.1Q305.5 163.3 309.0 161.1Q312.6 159.0 317.4 159.0L317.4 159.0Q320.7 159.0 323.5 160.0Q326.3 161.1 328.4 163.1Q330.5 165.2 331.6 168.3Q332.8 171.5 332.8 175.6L332.8 175.6L332.8 178.1L305.2 178.1L305.2 172.5L324.3 172.5Q324.3 170.5 323.4 169.0Q322.6 167.5 321.1 166.6Q319.6 165.8 317.6 165.8L317.6 165.8Q315.5 165.8 313.9 166.7Q312.3 167.7 311.4 169.3Q310.5 170.9 310.5 172.8L310.5 172.8L310.5 178.1Q310.5 180.6 311.4 182.3Q312.3 184.1 314.0 185.1Q315.7 186.0 317.9 186.0L317.9 186.0Q319.4 186.0 320.7 185.6Q322.0 185.2 322.9 184.3Q323.8 183.5 324.2 182.2L324.2 182.2L332.6 182.8Q332.0 185.8 330.0 188.1Q328.0 190.3 324.9 191.6Q321.8 192.8 317.8 192.8ZM345.8 192.2L336.9 192.2L336.9 148.5L346.0 148.5L346.0 164.9L346.3 164.9Q346.9 163.6 348.0 162.2Q349.1 160.9 351.0 159.9Q352.8 159.0 355.6 159.0L355.6 159.0Q359.1 159.0 362.2 160.9Q365.2 162.7 367.0 166.5Q368.8 170.2 368.8 175.8L368.8 175.8Q368.8 181.3 367.1 185.1Q365.3 188.8 362.3 190.8Q359.3 192.7 355.5 192.7L355.5 192.7Q352.9 192.7 351.1 191.8Q349.2 190.9 348.0 189.6Q346.9 188.3 346.3 186.9L346.3 186.9L345.8 186.9L345.8 192.2ZM345.8 175.8L345.8 175.8Q345.8 178.7 346.6 180.9Q347.4 183.1 348.9 184.3Q350.5 185.5 352.7 185.5L352.7 185.5Q354.9 185.5 356.4 184.2Q358.0 183.0 358.8 180.8Q359.5 178.7 359.5 175.8L359.5 175.8Q359.5 173.0 358.8 170.8Q358.0 168.7 356.4 167.4Q354.9 166.2 352.7 166.2L352.7 166.2Q350.5 166.2 348.9 167.4Q347.4 168.6 346.6 170.7Q345.8 172.9 345.8 175.8ZM400.1 168.8L400.1 168.8L391.8 169.3Q391.6 168.2 390.9 167.3Q390.1 166.5 389.0 166.0Q387.9 165.4 386.3 165.4L386.3 165.4Q384.2 165.4 382.7 166.3Q381.3 167.2 381.3 168.7L381.3 168.7Q381.3 169.9 382.2 170.7Q383.2 171.5 385.4 172.0L385.4 172.0L391.4 173.2Q396.1 174.1 398.5 176.3Q400.8 178.5 400.8 182.0L400.8 182.0Q400.8 185.2 398.9 187.7Q397.1 190.1 393.8 191.4Q390.5 192.8 386.3 192.8L386.3 192.8Q379.8 192.8 375.9 190.1Q372.1 187.4 371.4 182.7L371.4 182.7L380.3 182.2Q380.7 184.2 382.3 185.2Q383.8 186.3 386.3 186.3L386.3 186.3Q388.7 186.3 390.1 185.3Q391.6 184.4 391.6 182.9L391.6 182.9Q391.6 181.7 390.6 180.9Q389.5 180.1 387.4 179.7L387.4 179.7L381.7 178.5Q376.9 177.6 374.6 175.2Q372.3 172.9 372.3 169.2L372.3 169.2Q372.3 166.0 374.0 163.8Q375.7 161.5 378.8 160.2Q381.9 159.0 386.1 159.0L386.1 159.0Q392.3 159.0 395.9 161.6Q399.5 164.2 400.1 168.8ZM413.6 192.2L404.6 192.2L404.6 159.4L413.6 159.4L413.6 192.2ZM409.1 155.2L409.1 155.2Q407.1 155.2 405.7 153.9Q404.2 152.5 404.2 150.6L404.2 150.6Q404.2 148.7 405.7 147.4Q407.1 146.0 409.1 146.0L409.1 146.0Q411.1 146.0 412.6 147.4Q414.0 148.7 414.0 150.6L414.0 150.6Q414.0 152.5 412.6 153.9Q411.1 155.2 409.1 155.2ZM416.6 159.4L436.3 159.4L436.3 166.3L416.6 166.3L416.6 159.4ZM421.0 183.3L421.0 151.6L430.1 151.6L430.1 182.1Q430.1 183.4 430.5 184.1Q430.9 184.7 431.6 185.0Q432.3 185.3 433.2 185.3L433.2 185.3Q433.8 185.3 434.5 185.2Q435.1 185.1 435.5 185.0L435.5 185.0L436.9 191.8Q436.2 192.0 435.0 192.3Q433.7 192.5 432.0 192.6L432.0 192.6Q428.7 192.7 426.2 191.7Q423.8 190.7 422.4 188.6Q421.0 186.5 421.0 183.3L421.0 183.3ZM454.8 192.8L454.8 192.8Q449.7 192.8 446.1 190.7Q442.4 188.7 440.5 184.9Q438.5 181.1 438.5 175.9L438.5 175.9Q438.5 170.9 440.5 167.1Q442.4 163.3 446.0 161.1Q449.6 159.0 454.4 159.0L454.4 159.0Q457.6 159.0 460.4 160.0Q463.2 161.1 465.3 163.1Q467.4 165.2 468.6 168.3Q469.8 171.5 469.8 175.6L469.8 175.6L469.8 178.1L442.1 178.1L442.1 172.5L461.2 172.5Q461.2 170.5 460.4 169.0Q459.5 167.5 458.0 166.6Q456.5 165.8 454.5 165.8L454.5 165.8Q452.5 165.8 450.9 166.7Q449.3 167.7 448.4 169.3Q447.5 170.9 447.5 172.8L447.5 172.8L447.5 178.1Q447.5 180.6 448.4 182.3Q449.3 184.1 451.0 185.1Q452.6 186.0 454.9 186.0L454.9 186.0Q456.4 186.0 457.7 185.6Q458.9 185.2 459.8 184.3Q460.7 183.5 461.2 182.2L461.2 182.2L469.6 182.8Q469.0 185.8 467.0 188.1Q465.0 190.3 461.9 191.6Q458.8 192.8 454.8 192.8ZM500.9 168.8L500.9 168.8L492.6 169.3Q492.4 168.2 491.7 167.3Q491.0 166.5 489.9 166.0Q488.7 165.4 487.1 165.4L487.1 165.4Q485.0 165.4 483.6 166.3Q482.1 167.2 482.1 168.7L482.1 168.7Q482.1 169.9 483.1 170.7Q484.0 171.5 486.3 172.0L486.3 172.0L492.2 173.2Q497.0 174.1 499.3 176.3Q501.7 178.5 501.7 182.0L501.7 182.0Q501.7 185.2 499.8 187.7Q497.9 190.1 494.6 191.4Q491.4 192.8 487.1 192.8L487.1 192.8Q480.6 192.8 476.8 190.1Q472.9 187.4 472.3 182.7L472.3 182.7L481.2 182.2Q481.6 184.2 483.1 185.2Q484.7 186.3 487.1 186.3L487.1 186.3Q489.5 186.3 491.0 185.3Q492.4 184.4 492.5 182.9L492.5 182.9Q492.4 181.7 491.4 180.9Q490.4 180.1 488.3 179.7L488.3 179.7L482.6 178.5Q477.8 177.6 475.5 175.2Q473.1 172.9 473.1 169.2L473.1 169.2Q473.1 166.0 474.8 163.8Q476.6 161.5 479.7 160.2Q482.8 159.0 487.0 159.0L487.0 159.0Q493.2 159.0 496.8 161.6Q500.3 164.2 500.9 168.8Z M537.2 192.2L527.7 192.2L518.8 159.4L527.9 159.4L533.0 181.4L533.3 181.4L538.6 159.4L547.6 159.4L553.0 181.3L553.2 181.3L558.2 159.4L567.4 159.4L558.5 192.2L548.9 192.2L543.3 171.6L542.9 171.6L537.2 192.2ZM579.3 192.2L570.2 192.2L570.2 159.4L579.3 159.4L579.3 192.2ZM574.8 155.2L574.8 155.2Q572.7 155.2 571.3 153.9Q569.9 152.5 569.9 150.6L569.9 150.6Q569.9 148.7 571.3 147.4Q572.7 146.0 574.8 146.0L574.8 146.0Q576.8 146.0 578.2 147.4Q579.7 148.7 579.7 150.6L579.7 150.6Q579.7 152.5 578.2 153.9Q576.8 155.2 574.8 155.2ZM582.2 159.4L601.9 159.4L601.9 166.3L582.2 166.3L582.2 159.4ZM586.7 183.3L586.7 151.6L595.8 151.6L595.8 182.1Q595.8 183.4 596.2 184.1Q596.5 184.7 597.2 185.0Q597.9 185.3 598.9 185.3L598.9 185.3Q599.5 185.3 600.1 185.2Q600.8 185.1 601.1 185.0L601.1 185.0L602.5 191.8Q601.9 192.0 600.6 192.3Q599.4 192.5 597.6 192.6L597.6 192.6Q594.3 192.7 591.9 191.7Q589.4 190.7 588.0 188.6Q586.7 186.5 586.7 183.3L586.7 183.3ZM615.6 173.2L615.6 173.2L615.6 192.2L606.5 192.2L606.5 148.5L615.3 148.5L615.3 165.2L615.7 165.2Q616.8 162.3 619.3 160.7Q621.8 159.0 625.5 159.0L625.5 159.0Q628.9 159.0 631.5 160.5Q634.0 162.0 635.4 164.7Q636.8 167.5 636.8 171.3L636.8 171.3L636.8 192.2L627.7 192.2L627.7 172.9Q627.8 169.9 626.2 168.2Q624.7 166.5 621.9 166.5L621.9 166.5Q620.1 166.5 618.6 167.3Q617.2 168.1 616.4 169.6Q615.6 171.1 615.6 173.2Z M671.9 158.5L660.9 192.2L651.0 192.2L666.1 148.5L678.0 148.5L693.0 192.2L683.1 192.2L672.2 158.5L671.9 158.5ZM660.3 182.2L660.3 175.0L683.6 175.0L683.6 182.2L660.3 182.2ZM696.3 148.5L705.5 148.5L705.5 192.2L696.3 192.2L696.3 148.5Z "></path></clipPath><defs><pattern id="satori_pattern_id-0_0" x="0" y="0" width="1" height="1" patternUnits="objectBoundingBox"><linearGradient id="satori_biid-0_0" x1="0" y1="0" x2="1" y2="0"><stop offset="0%" stop-color="rgb(0,124,240)"></stop><stop offset="100%" stop-color="rgb(0,223,216)"></stop></linearGradient><rect x="0" y="0" width="614" height="72" fill="url(#satori_biid-0_0)"></rect></pattern></defs><rect x="93" y="136" width="614" height="72" fill="url(#satori_pattern_id-0_0)" clip-path="url(#satori_bct-id-0)"></rect><clipPath id="satori_bct-id-2"><path d="M199.3 262.2L194.8 262.2L194.8 239.7L199.3 239.7L199.3 242.5L199.5 242.5Q199.8 241.8 200.4 241.1Q200.9 240.4 201.8 240.0Q202.8 239.5 204.1 239.5L204.1 239.5Q205.9 239.5 207.4 240.4Q209.0 241.4 209.9 243.2Q210.8 245.1 210.8 247.9L210.8 247.9Q210.8 250.7 209.9 252.5Q209.0 254.4 207.5 255.4Q206.0 256.3 204.1 256.3L204.1 256.3Q202.8 256.3 201.9 255.9Q201.0 255.5 200.4 254.8Q199.8 254.1 199.5 253.5L199.5 253.5L199.3 253.5L199.3 262.2ZM199.3 247.9L199.3 247.9Q199.3 249.4 199.7 250.4Q200.1 251.5 200.8 252.1Q201.6 252.7 202.7 252.7L202.7 252.7Q203.8 252.7 204.6 252.1Q205.3 251.5 205.7 250.4Q206.1 249.3 206.1 247.9L206.1 247.9Q206.1 246.5 205.7 245.4Q205.3 244.3 204.6 243.7Q203.8 243.1 202.7 243.1L202.7 243.1Q201.6 243.1 200.8 243.7Q200.1 244.3 199.7 245.4Q199.3 246.4 199.3 247.9ZM219.2 256.4L219.2 256.4Q216.7 256.4 214.9 255.3Q213.1 254.3 212.1 252.4Q211.1 250.5 211.1 248.0L211.1 248.0Q211.1 245.4 212.1 243.5Q213.1 241.6 214.9 240.6Q216.7 239.5 219.2 239.5L219.2 239.5Q221.7 239.5 223.5 240.6Q225.3 241.6 226.3 243.5Q227.2 245.4 227.2 248.0L227.2 248.0Q227.2 250.5 226.3 252.4Q225.3 254.3 223.5 255.3Q221.7 256.4 219.2 256.4ZM219.2 252.9L219.2 252.9Q220.3 252.9 221.1 252.2Q221.8 251.6 222.2 250.5Q222.6 249.4 222.6 247.9L222.6 247.9Q222.6 246.5 222.2 245.4Q221.8 244.3 221.1 243.6Q220.3 243.0 219.2 243.0L219.2 243.0Q218.1 243.0 217.3 243.6Q216.5 244.3 216.1 245.4Q215.7 246.5 215.7 247.9L215.7 247.9Q215.7 249.4 216.1 250.5Q216.5 251.6 217.3 252.2Q218.1 252.9 219.2 252.9ZM235.8 256.1L231.0 256.1L226.6 239.7L231.2 239.7L233.7 250.7L233.8 250.7L236.5 239.7L241.0 239.7L243.7 250.6L243.8 250.6L246.3 239.7L250.9 239.7L246.4 256.1L241.6 256.1L238.8 245.8L238.6 245.8L235.8 256.1ZM258.3 256.4L258.3 256.4Q255.8 256.4 254.0 255.4Q252.2 254.3 251.2 252.5Q250.2 250.6 250.2 248.0L250.2 248.0Q250.2 245.4 251.2 243.5Q252.2 241.6 254.0 240.6Q255.8 239.5 258.2 239.5L258.2 239.5Q259.8 239.5 261.2 240.0Q262.6 240.5 263.6 241.6Q264.7 242.6 265.3 244.2Q265.9 245.7 265.9 247.8L265.9 247.8L265.9 249.1L252.0 249.1L252.0 246.2L261.6 246.2Q261.6 245.3 261.2 244.5Q260.7 243.8 260.0 243.3Q259.2 242.9 258.2 242.9L258.2 242.9Q257.2 242.9 256.4 243.4Q255.6 243.8 255.2 244.6Q254.7 245.4 254.7 246.4L254.7 246.4L254.7 249.1Q254.7 250.3 255.2 251.2Q255.6 252.1 256.4 252.5Q257.3 253.0 258.4 253.0L258.4 253.0Q259.2 253.0 259.8 252.8Q260.4 252.6 260.9 252.2Q261.3 251.7 261.6 251.1L261.6 251.1L265.8 251.4Q265.4 252.9 264.5 254.0Q263.5 255.2 261.9 255.8Q260.4 256.4 258.3 256.4ZM271.4 256.1L266.8 256.1L266.8 239.7L271.2 239.7L271.2 242.6L271.4 242.6Q271.8 241.0 272.9 240.3Q273.9 239.5 275.3 239.5L275.3 239.5Q275.7 239.5 276.1 239.5Q276.4 239.6 276.7 239.6L276.7 239.6L276.7 243.7Q276.4 243.6 275.9 243.5Q275.3 243.4 274.8 243.4L274.8 243.4Q273.8 243.4 273.0 243.9Q272.3 244.3 271.8 245.1Q271.4 245.8 271.4 246.8L271.4 246.8L271.4 256.1ZM283.8 256.4L283.8 256.4Q281.2 256.4 279.4 255.4Q277.6 254.3 276.6 252.5Q275.7 250.6 275.7 248.0L275.7 248.0Q275.7 245.4 276.6 243.5Q277.6 241.6 279.4 240.6Q281.2 239.5 283.6 239.5L283.6 239.5Q285.2 239.5 286.6 240.0Q288.0 240.5 289.1 241.6Q290.1 242.6 290.7 244.2Q291.3 245.7 291.3 247.8L291.3 247.8L291.3 249.1L277.5 249.1L277.5 246.2L287.0 246.2Q287.0 245.3 286.6 244.5Q286.2 243.8 285.4 243.3Q284.7 242.9 283.7 242.9L283.7 242.9Q282.6 242.9 281.8 243.4Q281.0 243.8 280.6 244.6Q280.1 245.4 280.1 246.4L280.1 246.4L280.1 249.1Q280.1 250.3 280.6 251.2Q281.0 252.1 281.9 252.5Q282.7 253.0 283.8 253.0L283.8 253.0Q284.6 253.0 285.2 252.8Q285.9 252.6 286.3 252.2Q286.8 251.7 287.0 251.1L287.0 251.1L291.2 251.4Q290.9 252.9 289.9 254.0Q288.9 255.2 287.3 255.8Q285.8 256.4 283.8 256.4ZM298.3 256.3L298.3 256.3Q296.4 256.3 294.9 255.4Q293.4 254.4 292.5 252.5Q291.6 250.7 291.6 247.9L291.6 247.9Q291.6 245.1 292.5 243.2Q293.4 241.4 295.0 240.4Q296.5 239.5 298.3 239.5L298.3 239.5Q299.6 239.5 300.6 240.0Q301.5 240.4 302.0 241.1Q302.6 241.8 302.9 242.5L302.9 242.5L303.1 242.5L303.1 234.3L307.6 234.3L307.6 256.1L303.1 256.1L303.1 253.5L302.9 253.5Q302.6 254.1 302.0 254.8Q301.4 255.5 300.5 255.9Q299.6 256.3 298.3 256.3ZM299.7 252.7L299.7 252.7Q300.8 252.7 301.6 252.1Q302.3 251.5 302.7 250.4Q303.2 249.4 303.2 247.9L303.2 247.9Q303.2 246.4 302.7 245.4Q302.3 244.3 301.6 243.7Q300.8 243.1 299.7 243.1L299.7 243.1Q298.6 243.1 297.8 243.7Q297.1 244.3 296.7 245.4Q296.3 246.5 296.3 247.9L296.3 247.9Q296.3 249.3 296.7 250.4Q297.1 251.5 297.8 252.1Q298.6 252.7 299.7 252.7Z M320.4 256.1L315.9 256.1L315.9 234.3L320.5 234.3L320.5 242.5L320.6 242.5Q320.9 241.8 321.5 241.1Q322.0 240.4 323.0 240.0Q323.9 239.5 325.3 239.5L325.3 239.5Q327.0 239.5 328.6 240.4Q330.1 241.4 331.0 243.2Q331.9 245.1 331.9 247.9L331.9 247.9Q331.9 250.7 331.0 252.5Q330.1 254.4 328.6 255.4Q327.1 256.3 325.2 256.3L325.2 256.3Q323.9 256.3 323.0 255.9Q322.1 255.5 321.5 254.8Q320.9 254.1 320.6 253.5L320.6 253.5L320.4 253.5L320.4 256.1ZM320.4 247.9L320.4 247.9Q320.4 249.4 320.8 250.4Q321.2 251.5 321.9 252.1Q322.7 252.7 323.8 252.7L323.8 252.7Q324.9 252.7 325.7 252.1Q326.4 251.5 326.8 250.4Q327.2 249.3 327.2 247.9L327.2 247.9Q327.2 246.5 326.9 245.4Q326.5 244.3 325.7 243.7Q324.9 243.1 323.8 243.1L323.8 243.1Q322.7 243.1 321.9 243.7Q321.2 244.3 320.8 245.4Q320.4 246.4 320.4 247.9ZM335.2 262.2L335.2 262.2Q334.3 262.2 333.5 262.1Q332.8 262.0 332.3 261.7L332.3 261.7L333.3 258.4Q334.1 258.6 334.8 258.6Q335.4 258.6 335.9 258.3Q336.4 258.0 336.7 257.2L336.7 257.2L336.9 256.5L331.1 239.7L335.8 239.7L339.2 251.7L339.4 251.7L342.8 239.7L347.6 239.7L341.2 257.8Q340.8 259.2 340.0 260.2Q339.2 261.1 338.0 261.7Q336.8 262.2 335.2 262.2Z M372.8 241.9L372.8 241.9L368.1 241.9Q368.0 241.0 367.6 240.3Q367.2 239.6 366.6 239.1Q365.9 238.6 365.1 238.3Q364.3 238.0 363.4 238.0L363.4 238.0Q361.7 238.0 360.4 238.9Q359.2 239.7 358.5 241.3Q357.8 242.9 357.8 245.2L357.8 245.2Q357.8 247.5 358.5 249.1Q359.2 250.7 360.5 251.5Q361.7 252.3 363.4 252.3L363.4 252.3Q364.3 252.3 365.1 252.1Q365.9 251.8 366.5 251.3Q367.1 250.9 367.5 250.2Q367.9 249.5 368.1 248.6L368.1 248.6L372.8 248.6Q372.6 250.1 371.9 251.5Q371.1 252.9 369.9 254.0Q368.7 255.1 367.1 255.7Q365.4 256.4 363.3 256.4L363.3 256.4Q360.4 256.4 358.1 255.1Q355.8 253.7 354.5 251.2Q353.1 248.7 353.1 245.2L353.1 245.2Q353.1 241.6 354.5 239.1Q355.8 236.6 358.1 235.3Q360.4 234.0 363.3 234.0L363.3 234.0Q365.2 234.0 366.8 234.5Q368.4 235.0 369.7 236.0Q371.0 237.1 371.7 238.5Q372.5 240.0 372.8 241.9ZM378.5 246.6L378.5 246.6L378.5 256.1L374.0 256.1L374.0 234.3L378.4 234.3L378.4 242.6L378.6 242.6Q379.1 241.2 380.4 240.3Q381.6 239.5 383.5 239.5L383.5 239.5Q385.2 239.5 386.5 240.2Q387.7 241.0 388.4 242.4Q389.2 243.7 389.1 245.7L389.1 245.7L389.1 256.1L384.6 256.1L384.6 246.5Q384.6 245.0 383.8 244.1Q383.1 243.3 381.7 243.3L381.7 243.3Q380.8 243.3 380.0 243.7Q379.3 244.1 378.9 244.8Q378.5 245.6 378.5 246.6ZM395.4 256.4L395.4 256.4Q393.8 256.4 392.6 255.8Q391.4 255.3 390.7 254.2Q390.0 253.1 390.0 251.5L390.0 251.5Q390.0 250.1 390.5 249.2Q391.0 248.3 391.8 247.7Q392.7 247.2 393.8 246.9Q394.9 246.6 396.1 246.5L396.1 246.5Q397.5 246.3 398.4 246.2Q399.3 246.1 399.7 245.8Q400.1 245.5 400.1 245.0L400.1 245.0L400.1 244.9Q400.1 243.9 399.4 243.4Q398.8 242.8 397.6 242.8L397.6 242.8Q396.4 242.8 395.7 243.4Q395.0 243.9 394.7 244.7L394.7 244.7L390.5 244.4Q390.8 242.9 391.8 241.8Q392.7 240.7 394.2 240.1Q395.7 239.5 397.7 239.5L397.7 239.5Q399.0 239.5 400.3 239.8Q401.5 240.1 402.5 240.8Q403.5 241.5 404.0 242.5Q404.6 243.6 404.6 245.0L404.6 245.0L404.6 256.1L400.3 256.1L400.3 253.8L400.2 253.8Q399.8 254.6 399.1 255.2Q398.5 255.7 397.5 256.1Q396.6 256.4 395.4 256.4ZM396.7 253.3L396.7 253.3Q397.7 253.3 398.5 252.9Q399.2 252.5 399.7 251.8Q400.1 251.1 400.1 250.2L400.1 250.2L400.1 248.5Q399.9 248.6 399.5 248.7Q399.1 248.9 398.7 248.9Q398.2 249.0 397.8 249.1Q397.3 249.2 396.9 249.2L396.9 249.2Q396.1 249.3 395.5 249.6Q395.0 249.9 394.6 250.3Q394.3 250.7 394.3 251.4L394.3 251.4Q394.3 252.3 395.0 252.8Q395.6 253.3 396.7 253.3ZM405.0 239.7L414.8 239.7L414.8 243.1L405.0 243.1L405.0 239.7ZM407.2 251.6L407.2 235.8L411.8 235.8L411.8 251.1Q411.8 251.7 411.9 252.0Q412.1 252.4 412.5 252.5Q412.8 252.6 413.3 252.6L413.3 252.6Q413.6 252.6 413.9 252.6Q414.2 252.5 414.4 252.5L414.4 252.5L415.1 255.9Q414.8 256.0 414.2 256.1Q413.6 256.3 412.7 256.3L412.7 256.3Q411.0 256.4 409.8 255.9Q408.6 255.4 407.9 254.3Q407.2 253.3 407.2 251.6L407.2 251.6ZM435.0 241.3L430.3 241.3Q430.1 240.5 429.7 239.9Q429.3 239.3 428.7 238.9Q428.1 238.5 427.4 238.3Q426.7 238.0 425.8 238.0L425.8 238.0Q424.1 238.0 422.8 238.9Q421.6 239.7 420.9 241.3Q420.2 242.9 420.2 245.1L420.2 245.1Q420.2 247.4 420.9 249.0Q421.5 250.6 422.8 251.5Q424.1 252.3 425.8 252.3L425.8 252.3Q427.4 252.3 428.5 251.7Q429.6 251.2 430.2 250.2Q430.8 249.1 430.8 247.7L430.8 247.7L431.7 247.9L426.1 247.9L426.1 244.4L435.2 244.4L435.2 247.2Q435.2 250.0 434.0 252.1Q432.8 254.2 430.7 255.3Q428.5 256.4 425.8 256.4L425.8 256.4Q422.7 256.4 420.4 255.0Q418.1 253.7 416.8 251.2Q415.5 248.6 415.5 245.2L415.5 245.2Q415.5 242.5 416.3 240.5Q417.0 238.4 418.4 236.9Q419.8 235.5 421.7 234.7Q423.5 234.0 425.7 234.0L425.7 234.0Q427.5 234.0 429.1 234.5Q430.7 235.0 432.0 236.0Q433.2 237.0 434.0 238.3Q434.8 239.7 435.0 241.3L435.0 241.3ZM441.3 256.1L436.7 256.1L436.7 234.3L445.3 234.3Q447.8 234.3 449.5 235.2Q451.3 236.1 452.2 237.8Q453.1 239.5 453.1 241.7L453.1 241.7Q453.1 243.8 452.2 245.5Q451.2 247.2 449.5 248.1Q447.7 249.0 445.2 249.0L445.2 249.0L439.7 249.0L439.7 245.3L444.4 245.3Q445.8 245.3 446.6 244.8Q447.5 244.4 447.9 243.6Q448.4 242.7 448.4 241.7L448.4 241.7Q448.4 240.6 447.9 239.8Q447.5 238.9 446.6 238.5Q445.8 238.0 444.4 238.0L444.4 238.0L441.3 238.0L441.3 256.1ZM460.0 238.1L453.3 238.1L453.3 234.3L471.2 234.3L471.2 238.1L464.5 238.1L464.5 256.1L460.0 256.1L460.0 238.1ZM470.8 245.3L480.8 245.3L480.8 248.9L470.8 248.9L470.8 245.3ZM490.5 256.4L490.5 256.4Q488.1 256.4 486.3 255.6Q484.4 254.7 483.4 253.3Q482.3 251.8 482.3 249.9L482.3 249.9L486.9 249.9Q486.9 250.7 487.4 251.3Q487.9 251.9 488.7 252.2Q489.5 252.6 490.5 252.6L490.5 252.6Q491.6 252.6 492.4 252.2Q493.2 251.8 493.7 251.2Q494.1 250.5 494.1 249.6L494.1 249.6Q494.1 248.8 493.6 248.1Q493.2 247.4 492.3 247.0Q491.4 246.7 490.1 246.7L490.1 246.7L488.1 246.7L488.1 243.3L490.1 243.3Q491.2 243.3 492.0 242.9Q492.8 242.5 493.2 241.9Q493.7 241.3 493.7 240.4L493.7 240.4Q493.7 239.6 493.3 238.9Q492.9 238.3 492.2 238.0Q491.5 237.6 490.6 237.6L490.6 237.6Q489.6 237.6 488.9 238.0Q488.1 238.3 487.6 238.9Q487.1 239.5 487.1 240.4L487.1 240.4L482.7 240.4Q482.7 238.5 483.8 237.0Q484.8 235.6 486.6 234.8Q488.4 234.0 490.6 234.0L490.6 234.0Q492.9 234.0 494.5 234.8Q496.2 235.6 497.2 237.0Q498.1 238.4 498.1 240.1L498.1 240.1Q498.1 241.9 497.0 243.2Q495.8 244.4 494.0 244.7L494.0 244.7L494.0 244.9Q496.4 245.2 497.7 246.6Q498.9 247.9 498.9 250.0L498.9 250.0Q498.9 251.8 497.9 253.3Q496.8 254.7 494.9 255.5Q493.0 256.4 490.5 256.4ZM502.3 256.4L502.3 256.4Q501.3 256.4 500.5 255.6Q499.8 254.9 499.8 253.8L499.8 253.8Q499.8 252.8 500.5 252.0Q501.3 251.3 502.3 251.3L502.3 251.3Q503.3 251.3 504.1 252.0Q504.9 252.8 504.9 253.8L504.9 253.8Q504.9 254.5 504.5 255.1Q504.2 255.7 503.6 256.0Q503.0 256.4 502.3 256.4ZM514.3 256.4L514.3 256.4Q512.1 256.4 510.3 255.5Q508.6 254.7 507.5 253.3Q506.5 251.8 506.5 249.9L506.5 249.9L510.9 249.9Q511 251.2 512.0 252.0Q513.0 252.8 514.3 252.8L514.3 252.8Q515.4 252.8 516.3 252.3Q517.1 251.8 517.6 250.9Q518.1 250.1 518.1 248.9L518.1 248.9Q518.1 247.8 517.6 246.9Q517.1 246.0 516.2 245.5Q515.4 245.0 514.3 245.0L514.3 245.0Q513.3 245.0 512.4 245.4Q511.5 245.8 511.0 246.5L511.0 246.5L506.9 245.8L508.0 234.3L521.3 234.3L521.3 238.0L511.8 238.0L511.2 243.5L511.3 243.5Q511.9 242.7 513.1 242.2Q514.2 241.6 515.7 241.6L515.7 241.6Q517.6 241.6 519.2 242.6Q520.7 243.5 521.6 245.1Q522.5 246.7 522.5 248.8L522.5 248.8Q522.5 251.0 521.5 252.7Q520.4 254.4 518.6 255.4Q516.8 256.4 514.3 256.4ZM524 245.3L534.0 245.3L534.0 248.9L524 248.9L524 245.3ZM534.7 239.7L544.5 239.7L544.5 243.1L534.7 243.1L534.7 239.7ZM536.9 251.6L536.9 235.8L541.4 235.8L541.4 251.1Q541.4 251.7 541.6 252.0Q541.8 252.4 542.2 252.5Q542.5 252.6 543.0 252.6L543.0 252.6Q543.3 252.6 543.6 252.6Q543.9 252.5 544.1 252.5L544.1 252.5L544.8 255.9Q544.5 256.0 543.9 256.1Q543.2 256.3 542.4 256.3L542.4 256.3Q540.7 256.4 539.5 255.9Q538.3 255.4 537.6 254.3Q536.9 253.3 536.9 251.6L536.9 251.6ZM556.0 249.1L556.0 249.1L556.0 239.7L560.5 239.7L560.5 256.1L556.1 256.1L556.1 253.1L556.0 253.1Q555.4 254.5 554.1 255.4Q552.9 256.3 551.0 256.3L551.0 256.3Q549.4 256.3 548.1 255.5Q546.9 254.8 546.2 253.4Q545.5 252.1 545.5 250.1L545.5 250.1L545.5 239.7L550.0 239.7L550.0 249.3Q550.0 250.8 550.8 251.6Q551.6 252.5 552.8 252.5L552.8 252.5Q553.7 252.5 554.4 252.1Q555.1 251.7 555.5 251.0Q556.0 250.2 556.0 249.1ZM566.7 256.1L562.1 256.1L562.1 239.7L566.5 239.7L566.5 242.6L566.7 242.6Q567.1 241.0 568.2 240.3Q569.3 239.5 570.6 239.5L570.6 239.5Q571.0 239.5 571.4 239.5Q571.8 239.6 572.1 239.6L572.1 239.6L572.1 243.7Q571.7 243.6 571.2 243.5Q570.6 243.4 570.1 243.4L570.1 243.4Q569.1 243.4 568.4 243.9Q567.6 244.3 567.1 245.1Q566.7 245.8 566.7 246.8L566.7 246.8L566.7 256.1ZM576.9 256.1L572.5 256.1L572.5 234.3L577.0 234.3L577.0 242.5L577.2 242.5Q577.4 241.8 578.0 241.1Q578.6 240.4 579.5 240.0Q580.4 239.5 581.8 239.5L581.8 239.5Q583.6 239.5 585.1 240.4Q586.6 241.4 587.5 243.2Q588.4 245.1 588.4 247.9L588.4 247.9Q588.4 250.7 587.6 252.5Q586.7 254.4 585.2 255.4Q583.7 256.3 581.8 256.3L581.8 256.3Q580.5 256.3 579.6 255.9Q578.6 255.5 578.0 254.8Q577.5 254.1 577.2 253.5L577.2 253.5L576.9 253.5L576.9 256.1ZM576.9 247.9L576.9 247.9Q576.9 249.4 577.3 250.4Q577.7 251.5 578.5 252.1Q579.3 252.7 580.4 252.7L580.4 252.7Q581.5 252.7 582.2 252.1Q583.0 251.5 583.4 250.4Q583.8 249.3 583.8 247.9L583.8 247.9Q583.8 246.5 583.4 245.4Q583.0 244.3 582.2 243.7Q581.5 243.1 580.4 243.1L580.4 243.1Q579.2 243.1 578.5 243.7Q577.7 244.3 577.3 245.4Q576.9 246.4 576.9 247.9ZM596.8 256.4L596.8 256.4Q594.4 256.4 592.6 255.3Q590.7 254.3 589.8 252.4Q588.8 250.5 588.8 248.0L588.8 248.0Q588.8 245.4 589.8 243.5Q590.7 241.6 592.6 240.6Q594.4 239.5 596.8 239.5L596.8 239.5Q599.3 239.5 601.1 240.6Q602.9 241.6 603.9 243.5Q604.9 245.4 604.9 248.0L604.9 248.0Q604.9 250.5 603.9 252.4Q602.9 254.3 601.1 255.3Q599.3 256.4 596.8 256.4ZM596.9 252.9L596.9 252.9Q598.0 252.9 598.7 252.2Q599.5 251.6 599.9 250.5Q600.3 249.4 600.3 247.9L600.3 247.9Q600.3 246.5 599.9 245.4Q599.5 244.3 598.7 243.6Q598.0 243.0 596.9 243.0L596.9 243.0Q595.7 243.0 594.9 243.6Q594.2 244.3 593.8 245.4Q593.4 246.5 593.4 247.9L593.4 247.9Q593.4 249.4 593.8 250.5Q594.2 251.6 594.9 252.2Q595.7 252.9 596.9 252.9Z "></path></clipPath><defs><pattern id="satori_pattern_id-2_0" x="0" y="0" width="1" height="1" patternUnits="objectBoundingBox"><linearGradient id="satori_biid-2_0" x1="0" y1="0" x2="1" y2="0"><stop offset="0%" stop-color="rgb(255,77,77)"></stop><stop offset="100%" stop-color="rgb(249,203,40)"></stop></linearGradient><rect x="0" y="0" width="414" height="36" fill="url(#satori_biid-2_0)"></rect></pattern></defs><rect x="193" y="228" width="414" height="36" fill="url(#satori_pattern_id-2_0)" clip-path="url(#satori_bct-id-2)"></rect></svg>