<svg width="800" height="400" viewBox="0 0 800 400" xmlns="http://www.w3.org/2000/svg"><defs><pattern id="satori_pattern_id_0" x="0" y="0" width="1" height="1" patternUnits="objectBoundingBox"><linearGradient id="satori_biid_0" x1="0" y1="0" x2="0" y2="1"><stop offset="0%" stop-color="#dbf4ff"/><stop offset="100%" stop-color="#fff1f1"/></linearGradient><rect x="0" y="0" width="800" height="400" fill="url(#satori_biid_0)"/></pattern></defs><rect x="0" y="0" width="800" height="400" fill="url(#satori_pattern_id_0)"/><clipPath id="satori_bct-id-0"><path d="M115.4 152.2L96.8 152.2L96.8 108.5L114.3 108.5Q119.1 108.5 122.3 110.0Q125.5 111.4 127.1 113.9Q128.8 116.4 128.8 119.7L128.8 119.7Q128.8 122.3 127.7 124.2Q126.7 126.1 124.9 127.3Q123.1 128.6 120.9 129.1L120.9 129.1L120.9 129.5Q123.4 129.6 125.5 130.9Q127.7 132.2 129.1 134.6Q130.5 136.9 130.5 140.1L130.5 140.1Q130.5 143.6 128.7 146.3Q127.0 149.0 123.7 150.6Q120.3 152.2 115.4 152.2L115.4 152.2ZM106.0 133.0L106.0 144.6L113.5 144.6Q117.4 144.6 119.2 143.1Q120.9 141.7 120.9 139.2L120.9 139.2Q120.9 137.4 120.1 136.0Q119.2 134.6 117.6 133.8Q116.0 133.0 113.8 133.0L113.8 133.0L106.0 133.0ZM106.0 116.0L106.0 126.8L112.9 126.8Q114.8 126.8 116.2 126.1Q117.7 125.4 118.6 124.2Q119.4 123.0 119.4 121.2L119.4 121.2Q119.4 118.9 117.8 117.4Q116.1 116.0 113.0 116.0L113.0 116.0L106.0 116.0ZM155.3 138.2L155.3 138.2L155.3 119.4L164.3 119.4L164.3 152.2L155.6 152.2L155.6 146.2L155.3 146.2Q154.2 149.1 151.6 150.8Q149.0 152.6 145.4 152.6L145.4 152.6Q142.1 152.6 139.6 151.1Q137.1 149.6 135.7 146.9Q134.3 144.1 134.3 140.3L134.3 140.3L134.3 119.4L143.4 119.4L143.4 138.7Q143.4 141.5 144.9 143.2Q146.4 144.9 149.0 144.9L149.0 144.9Q150.7 144.9 152.1 144.2Q153.5 143.4 154.4 141.9Q155.3 140.4 155.3 138.2ZM178.7 152.2L169.6 152.2L169.6 119.4L178.7 119.4L178.7 152.2ZM174.1 115.2L174.1 115.2Q172.1 115.2 170.7 113.9Q169.2 112.5 169.2 110.6L169.2 110.6Q169.2 108.7 170.7 107.4Q172.1 106.0 174.1 106.0L174.1 106.0Q176.2 106.0 177.6 107.4Q179.0 108.7 179.0 110.6L179.0 110.6Q179.0 112.5 177.6 113.9Q176.2 115.2 174.1 115.2ZM183.9 108.5L193.0 108.5L193.0 152.2L183.9 152.2L183.9 108.5ZM210.3 152.7L210.3 152.7Q206.6 152.7 203.5 150.8Q200.5 148.8 198.8 145.1Q197.0 141.3 197.0 135.8L197.0 135.8Q197.0 130.2 198.8 126.5Q200.6 122.7 203.6 120.9Q206.7 119.0 210.3 119.0L210.3 119.0Q213.0 119.0 214.9 119.9Q216.7 120.9 217.8 122.2Q219.0 123.6 219.6 124.9L219.6 124.9L219.9 124.9L219.9 108.5L228.9 108.5L228.9 152.2L220.0 152.2L220.0 146.9L219.6 146.9Q218.9 148.3 217.8 149.6Q216.6 150.9 214.8 151.8Q212.9 152.7 210.3 152.7ZM213.2 145.5L213.2 145.5Q215.4 145.5 216.9 144.3Q218.4 143.1 219.2 140.9Q220.0 138.7 220.0 135.8L220.0 135.8Q220.0 132.9 219.2 130.7Q218.4 128.6 216.9 127.4Q215.4 126.2 213.2 126.2L213.2 126.2Q210.9 126.2 209.4 127.4Q207.9 128.7 207.1 130.8Q206.3 133.0 206.3 135.8L206.3 135.8Q206.3 138.7 207.1 140.8Q207.9 143.0 209.4 144.2Q210.9 145.5 213.2 145.5Z M265.2 152.2L256.2 152.2L243.8 108.5L253.8 108.5L261.1 138.8L261.4 138.8L269.4 108.5L278.0 108.5L286.0 138.9L286.4 138.9L293.6 108.5L303.7 108.5L291.2 152.2L282.2 152.2L273.9 123.6L273.5 123.6L265.2 152.2ZM317.8 152.8L317.8 152.8Q312.7 152.8 309.1 150.7Q305.5 148.7 303.5 144.9Q301.5 141.1 301.5 135.9L301.5 135.9Q301.5 130.9 303.5 127.1Q305.5 123.3 309.0 121.1Q312.6 119.0 317.4 119.0L317.4 119.0Q320.7 119.0 323.5 120.0Q326.3 121.1 328.4 123.1Q330.5 125.2 331.6 128.3Q332.8 131.5 332.8 135.6L332.8 135.6L332.8 138.1L305.2 138.1L305.2 132.5L324.3 132.5Q324.3 130.5 323.4 129.0Q322.6 127.5 321.1 126.6Q319.6 125.8 317.6 125.8L317.6 125.8Q315.5 125.8 313.9 126.7Q312.3 127.7 311.4 129.3Q310.5 130.9 310.5 132.8L310.5 132.8L310.5 138.1Q310.5 140.6 311.4 142.3Q312.3 144.1 314.0 145.1Q315.7 146.0 317.9 146.0L317.9 146.0Q319.4 146.0 320.7 145.6Q322.0 145.2 322.9 144.3Q323.8 143.5 324.2 142.2L324.2 142.2L332.6 142.8Q332.0 145.8 330.0 148.1Q328.0 150.3 324.9 151.6Q321.8 152.8 317.8 152.8ZM345.8 152.2L336.9 152.2L336.9 108.5L346.0 108.5L346.0 124.9L346.3 124.9Q346.9 123.6 348.0 122.2Q349.1 120.9 351.0 119.9Q352.8 119.0 355.6 119.0L355.6 119.0Q359.1 119.0 362.2 120.9Q365.2 122.7 367.0 126.5Q368.8 130.2 368.8 135.8L368.8 135.8Q368.8 141.3 367.1 145.1Q365.3 148.8 362.3 150.8Q359.3 152.7 355.5 152.7L355.5 152.7Q352.9 152.7 351.1 151.8Q349.2 150.9 348.0 149.6Q346.9 148.3 346.3 146.9L346.3 146.9L345.8 146.9L345.8 152.2ZM345.8 135.8L345.8 135.8Q345.8 138.7 346.6 140.9Q347.4 143.1 348.9 144.3Q350.5 145.5 352.7 145.5L352.7 145.5Q354.9 145.5 356.4 144.2Q358.0 143.0 358.8 140.8Q359.5 138.7 359.5 135.8L359.5 135.8Q359.5 133.0 358.8 130.8Q358.0 128.7 356.4 127.4Q354.9 126.2 352.7 126.2L352.7 126.2Q350.5 126.2 348.9 127.4Q347.4 128.6 346.6 130.7Q345.8 132.9 345.8 135.8ZM400.1 128.8L400.1 128.8L391.8 129.3Q391.6 128.2 390.9 127.3Q390.1 126.5 389.0 126.0Q387.9 125.4 386.3 125.4L386.3 125.4Q384.2 125.4 382.7 126.3Q381.3 127.2 381.3 128.7L381.3 128.7Q381.3 129.9 382.2 130.7Q383.2 131.5 385.4 132.0L385.4 132.0L391.4 133.2Q396.1 134.1 398.5 136.3Q400.8 138.5 400.8 142.0L400.8 142.0Q400.8 145.2 398.9 147.7Q397.1 150.1 393.8 151.4Q390.5 152.8 386.3 152.8L386.3 152.8Q379.8 152.8 375.9 150.1Q372.1 147.4 371.4 142.7L371.4 142.7L380.3 142.2Q380.7 144.2 382.3 145.2Q383.8 146.3 386.3 146.3L386.3 146.3Q388.7 146.3 390.1 145.3Q391.6 144.4 391.6 142.9L391.6 142.9Q391.6 141.7 390.6 140.9Q389.5 140.1 387.4 139.7L387.4 139.7L381.7 138.5Q376.9 137.6 374.6 135.2Q372.3 132.9 372.3 129.2L372.3 129.2Q372.3 126.0 374.0 123.8Q375.7 121.5 378.8 120.2Q381.9 119.0 386.1 119.0L386.1 119.0Q392.3 119.0 395.9 121.6Q399.5 124.2 400.1 128.8ZM413.6 152.2L404.6 152.2L404.6 119.4L413.6 119.4L413.6 152.2ZM409.1 115.2L409.1 115.2Q407.1 115.2 405.7 113.9Q404.2 112.5 404.2 110.6L404.2 110.6Q404.2 108.7 405.7 107.4Q407.1 106.0 409.1 106.0L409.1 106.0Q411.1 106.0 412.6 107.4Q414.0 108.7 414.0 110.6L414.0 110.6Q414.0 112.5 412.6 113.9Q411.1 115.2 409.1 115.2ZM416.6 119.4L436.3 119.4L436.3 126.3L416.6 126.3L416.6 119.4ZM421.0 143.3L421.0 111.6L430.1 111.6L430.1 142.1Q430.1 143.4 430.5 144.1Q430.9 144.7 431.6 145.0Q432.3 145.3 433.2 145.3L433.2 145.3Q433.8 145.3 434.5 145.2Q435.1 145.1 435.5 145.0L435.5 145.0L436.9 151.8Q436.2 152.0 435.0 152.3Q433.7 152.5 432.0 152.6L432.0 152.6Q428.7 152.7 426.2 151.7Q423.8 150.7 422.4 148.6Q421.0 146.5 421.0 143.3L421.0 143.3ZM454.8 152.8L454.8 152.8Q449.7 152.8 446.1 150.7Q442.4 148.7 440.5 144.9Q438.5 141.1 438.5 135.9L438.5 135.9Q438.5 130.9 440.5 127.1Q442.4 123.3 446.0 121.1Q449.6 119.0 454.4 119.0L454.4 119.0Q457.6 119.0 460.4 120.0Q463.2 121.1 465.3 123.1Q467.4 125.2 468.6 128.3Q469.8 131.5 469.8 135.6L469.8 135.6L469.8 138.1L442.1 138.1L442.1 132.5L461.2 132.5Q461.2 130.5 460.4 129.0Q459.5 127.5 458.0 126.6Q456.5 125.8 454.5 125.8L454.5 125.8Q452.5 125.8 450.9 126.7Q449.3 127.7 448.4 129.3Q447.5 130.9 447.5 132.8L447.5 132.8L447.5 138.1Q447.5 140.6 448.4 142.3Q449.3 144.1 451.0 145.1Q452.6 146.0 454.9 146.0L454.9 146.0Q456.4 146.0 457.7 145.6Q458.9 145.2 459.8 144.3Q460.7 143.5 461.2 142.2L461.2 142.2L469.6 142.8Q469.0 145.8 467.0 148.1Q465.0 150.3 461.9 151.6Q458.8 152.8 454.8 152.8ZM500.9 128.8L500.9 128.8L492.6 129.3Q492.4 128.2 491.7 127.3Q491.0 126.5 489.9 126.0Q488.7 125.4 487.1 125.4L487.1 125.4Q485.0 125.4 483.6 126.3Q482.1 127.2 482.1 128.7L482.1 128.7Q482.1 129.9 483.1 130.7Q484.0 131.5 486.3 132.0L486.3 132.0L492.2 133.2Q497.0 134.1 499.3 136.3Q501.7 138.5 501.7 142.0L501.7 142.0Q501.7 145.2 499.8 147.7Q497.9 150.1 494.6 151.4Q491.4 152.8 487.1 152.8L487.1 152.8Q480.6 152.8 476.8 150.1Q472.9 147.4 472.3 142.7L472.3 142.7L481.2 142.2Q481.6 144.2 483.1 145.2Q484.7 146.3 487.1 146.3L487.1 146.3Q489.5 146.3 491.0 145.3Q492.4 144.4 492.5 142.9L492.5 142.9Q492.4 141.7 491.4 140.9Q490.4 140.1 488.3 139.7L488.3 139.7L482.6 138.5Q477.8 137.6 475.5 135.2Q473.1 132.9 473.1 129.2L473.1 129.2Q473.1 126.0 474.8 123.8Q476.6 121.5 479.7 120.2Q482.8 119.0 487.0 119.0L487.0 119.0Q493.2 119.0 496.8 121.6Q500.3 124.2 500.9 128.8Z M537.2 152.2L527.7 152.2L518.8 119.4L527.9 119.4L533.0 141.4L533.3 141.4L538.6 119.4L547.6 119.4L553.0 141.3L553.2 141.3L558.2 119.4L567.4 119.4L558.5 152.2L548.9 152.2L543.3 131.6L542.9 131.6L537.2 152.2ZM579.3 152.2L570.2 152.2L570.2 119.4L579.3 119.4L579.3 152.2ZM574.8 115.2L574.8 115.2Q572.7 115.2 571.3 113.9Q569.9 112.5 569.9 110.6L569.9 110.6Q569.9 108.7 571.3 107.4Q572.7 106.0 574.8 106.0L574.8 106.0Q576.8 106.0 578.2 107.4Q579.7 108.7 579.7 110.6L579.7 110.6Q579.7 112.5 578.2 113.9Q576.8 115.2 574.8 115.2ZM582.2 119.4L601.9 119.4L601.9 126.3L582.2 126.3L582.2 119.4ZM586.7 143.3L586.7 111.6L595.8 111.6L595.8 142.1Q595.8 143.4 596.2 144.1Q596.5 144.7 597.2 145.0Q597.9 145.3 598.9 145.3L598.9 145.3Q599.5 145.3 600.1 145.2Q600.8 145.1 601.1 145.0L601.1 145.0L602.5 151.8Q601.9 152.0 600.6 152.3Q599.4 152.5 597.6 152.6L597.6 152.6Q594.3 152.7 591.9 151.7Q589.4 150.7 588.0 148.6Q586.7 146.5 586.7 143.3L586.7 143.3ZM615.6 133.2L615.6 133.2L615.6 152.2L606.5 152.2L606.5 108.5L615.3 108.5L615.3 125.2L615.7 125.2Q616.8 122.3 619.3 120.7Q621.8 119.0 625.5 119.0L625.5 119.0Q628.9 119.0 631.5 120.5Q634.0 122.0 635.4 124.7Q636.8 127.5 636.8 131.3L636.8 131.3L636.8 152.2L627.7 152.2L627.7 132.9Q627.8 129.9 626.2 128.2Q624.7 126.5 621.9 126.5L621.9 126.5Q620.1 126.5 618.6 127.3Q617.2 128.1 616.4 129.6Q615.6 131.1 615.6 133.2Z M671.9 118.5L660.9 152.2L651.0 152.2L666.1 108.5L678.0 108.5L693.0 152.2L683.1 152.2L672.2 118.5L671.9 118.5ZM660.3 142.2L660.3 135.0L683.6 135.0L683.6 142.2L660.3 142.2ZM696.3 108.5L705.5 108.5L705.5 152.2L696.3 152.2L696.3 108.5Z "/></clipPath><defs><pattern id="satori_pattern_id-0_0" x="0" y="0" width="1" height="1" patternUnits="objectBoundingBox"><linearGradient id="satori_biid-0_0" x1="0" y1="0" x2="1" y2="0"><stop offset="0%" stop-color="rgb(0,124,240)"/><stop offset="100%" stop-color="rgb(0,223,216)"/></linearGradient><rect x="0" y="0" width="614" height="73" fill="url(#satori_biid-0_0)"/></pattern></defs><rect x="93" y="96" width="614" height="73" fill="url(#satori_pattern_id-0_0)" clip-path="url(#satori_bct-id-0)"/><clipPath id="satori_bct-id-2"><path d="M291.7 235.2L282.6 235.2L282.6 202.4L291.7 202.4L291.7 235.2ZM287.2 198.2L287.2 198.2Q285.2 198.2 283.7 196.9Q282.3 195.5 282.3 193.6L282.3 193.6Q282.3 191.7 283.7 190.4Q285.2 189.0 287.2 189.0L287.2 189.0Q289.2 189.0 290.6 190.4Q292.1 191.7 292.1 193.6L292.1 193.6Q292.1 195.5 290.6 196.9Q289.2 198.2 287.2 198.2ZM306.0 216.2L306.0 216.2L306.0 235.2L296.9 235.2L296.9 202.4L305.6 202.4L305.6 208.2L306.0 208.2Q307.1 205.4 309.6 203.7Q312.2 202.0 315.8 202.0L315.8 202.0Q319.2 202.0 321.8 203.5Q324.3 205.0 325.7 207.7Q327.1 210.5 327.1 214.3L327.1 214.3L327.1 235.2L318.0 235.2L318.0 215.9Q318.1 212.9 316.5 211.2Q314.9 209.5 312.2 209.5L312.2 209.5Q310.4 209.5 309.0 210.3Q307.6 211.1 306.8 212.6Q306.0 214.1 306.0 216.2Z M375.9 234.7L345.9 221.5L345.9 214.0L375.9 200.7L375.9 209.4L355.4 217.6L355.7 217.2L355.7 218.2L355.4 217.8L375.9 226.0L375.9 234.7Z M405.1 191.5L413.8 191.5L413.8 235.2L404.5 235.2L404.5 200.3L404.3 200.3L394.3 206.5L394.3 198.4L405.1 191.5ZM431.3 235.2L422.2 235.2L422.2 202.4L430.9 202.4L430.9 208.2L431.3 208.2Q432.3 205.3 434.7 203.7Q437.0 202.0 440.4 202.0L440.4 202.0Q443.7 202.0 446.1 203.7Q448.5 205.4 449.3 208.2L449.3 208.2L449.6 208.2Q450.6 205.4 453.2 203.7Q455.9 202.0 459.5 202.0L459.5 202.0Q464.0 202.0 466.9 204.9Q469.8 207.8 469.8 213.2L469.8 213.2L469.8 235.2L460.7 235.2L460.7 214.9Q460.7 212.2 459.3 210.8Q457.8 209.5 455.7 209.5L455.7 209.5Q453.2 209.5 451.8 211.1Q450.4 212.6 450.4 215.2L450.4 215.2L450.4 235.2L441.6 235.2L441.6 214.7Q441.6 212.3 440.2 210.9Q438.9 209.5 436.6 209.5L436.6 209.5Q435.1 209.5 433.9 210.2Q432.7 211.0 432 212.4Q431.3 213.7 431.3 215.5L431.3 215.5L431.3 235.2ZM484.0 235.2L474.9 235.2L474.9 202.4L484.0 202.4L484.0 235.2ZM479.5 198.2L479.5 198.2Q477.5 198.2 476.0 196.9Q474.6 195.5 474.6 193.6L474.6 193.6Q474.6 191.7 476.0 190.4Q477.5 189.0 479.5 189.0L479.5 189.0Q481.5 189.0 483.0 190.4Q484.4 191.7 484.4 193.6L484.4 193.6Q484.4 195.5 483.0 196.9Q481.5 198.2 479.5 198.2ZM498.3 216.2L498.3 216.2L498.3 235.2L489.3 235.2L489.3 202.4L497.9 202.4L497.9 208.2L498.3 208.2Q499.4 205.4 501.9 203.7Q504.5 202.0 508.1 202.0L508.1 202.0Q511.5 202.0 514.1 203.5Q516.6 205.0 518.0 207.7Q519.4 210.5 519.4 214.3L519.4 214.3L519.4 235.2L510.4 235.2L510.4 215.9Q510.4 212.9 508.8 211.2Q507.3 209.5 504.5 209.5L504.5 209.5Q502.7 209.5 501.3 210.3Q499.9 211.1 499.1 212.6Q498.4 214.1 498.3 216.2Z "/></clipPath><defs><pattern id="satori_pattern_id-2_0" x="0" y="0" width="1" height="1" patternUnits="objectBoundingBox"><linearGradient id="satori_biid-2_0" x1="0" y1="0" x2="1" y2="0"><stop offset="0%" stop-color="rgb(121,40,202)"/><stop offset="100%" stop-color="rgb(255,0,128)"/></linearGradient><rect x="0" y="0" width="242" height="72" fill="url(#satori_biid-2_0)"/></pattern></defs><rect x="279" y="179" width="242" height="72" fill="url(#satori_pattern_id-2_0)" clip-path="url(#satori_bct-id-2)"/><clipPath id="satori_bct-id-4"><path d="M161.4 300.9L156.1 300.9L156.1 274.7L161.3 274.7L161.3 277.9L161.6 277.9Q161.9 277.1 162.6 276.3Q163.2 275.5 164.3 275.0Q165.4 274.4 167.0 274.4L167.0 274.4Q169.1 274.4 170.9 275.5Q172.6 276.6 173.7 278.8Q174.7 281.0 174.7 284.2L174.7 284.2Q174.7 287.4 173.7 289.6Q172.7 291.8 170.9 292.9Q169.2 294.1 167.0 294.1L167.0 294.1Q165.4 294.1 164.4 293.6Q163.3 293.1 162.6 292.3Q161.9 291.5 161.6 290.7L161.6 290.7L161.4 290.7L161.4 300.9ZM161.3 284.2L161.3 284.2Q161.3 285.9 161.8 287.2Q162.2 288.5 163.1 289.2Q164.0 289.9 165.3 289.9L165.3 289.9Q166.6 289.9 167.5 289.1Q168.4 288.4 168.9 287.2Q169.3 285.9 169.3 284.2L169.3 284.2Q169.3 282.6 168.9 281.3Q168.4 280.1 167.5 279.3Q166.6 278.6 165.3 278.6L165.3 278.6Q164.0 278.6 163.1 279.3Q162.2 280.0 161.8 281.3Q161.3 282.5 161.3 284.2ZM184.9 294.1L184.9 294.1Q182.0 294.1 179.9 292.9Q177.8 291.7 176.6 289.4Q175.5 287.2 175.5 284.3L175.5 284.3Q175.5 281.3 176.6 279.1Q177.8 276.9 179.9 275.7Q182.0 274.4 184.9 274.4L184.9 274.4Q187.8 274.4 189.9 275.7Q192.0 276.9 193.1 279.1Q194.3 281.3 194.3 284.3L194.3 284.3Q194.3 287.2 193.1 289.4Q192.0 291.7 189.9 292.9Q187.8 294.1 184.9 294.1ZM184.9 290.0L184.9 290.0Q186.2 290.0 187.1 289.3Q188.0 288.5 188.4 287.2Q188.9 285.9 188.9 284.3L188.9 284.3Q188.9 282.6 188.4 281.3Q188.0 280.0 187.1 279.2Q186.2 278.5 184.9 278.5L184.9 278.5Q183.6 278.5 182.7 279.2Q181.8 280.0 181.3 281.3Q180.9 282.6 180.9 284.3L180.9 284.3Q180.9 285.9 181.3 287.2Q181.8 288.5 182.7 289.3Q183.6 290.0 184.9 290.0ZM204.6 293.8L199.0 293.8L193.8 274.7L199.2 274.7L202.1 287.5L202.3 287.5L205.4 274.7L210.7 274.7L213.8 287.4L213.9 287.4L216.9 274.7L222.2 274.7L217.0 293.8L211.4 293.8L208.1 281.8L207.9 281.8L204.6 293.8ZM231.2 294.1L231.2 294.1Q228.3 294.1 226.2 292.9Q224.1 291.7 222.9 289.5Q221.8 287.3 221.8 284.3L221.8 284.3Q221.8 281.4 222.9 279.1Q224.1 276.9 226.1 275.7Q228.2 274.4 231.0 274.4L231.0 274.4Q232.9 274.4 234.5 275.0Q236.2 275.6 237.4 276.8Q238.6 278.0 239.3 279.9Q240.0 281.7 240.0 284.1L240.0 284.1L240.0 285.6L223.9 285.6L223.9 282.3L235.0 282.3Q235.0 281.1 234.5 280.3Q234.0 279.4 233.1 278.9Q232.3 278.4 231.1 278.4L231.1 278.4Q229.9 278.4 229.0 278.9Q228.1 279.5 227.5 280.4Q227.0 281.3 227.0 282.5L227.0 282.5L227.0 285.6Q227.0 287.0 227.5 288.0Q228.1 289.1 229.0 289.6Q230.0 290.2 231.3 290.2L231.3 290.2Q232.2 290.2 232.9 289.9Q233.7 289.7 234.2 289.2Q234.7 288.7 235.0 288.0L235.0 288.0L239.9 288.3Q239.5 290.1 238.4 291.4Q237.2 292.7 235.4 293.4Q233.6 294.1 231.2 294.1ZM246.7 293.8L241.5 293.8L241.5 274.7L246.6 274.7L246.6 278.0L246.8 278.0Q247.3 276.2 248.5 275.3Q249.8 274.4 251.4 274.4L251.4 274.4Q251.8 274.4 252.2 274.4Q252.7 274.5 253.0 274.6L253.0 274.6L253.0 279.3Q252.7 279.2 252.0 279.1Q251.3 279.0 250.8 279.0L250.8 279.0Q249.6 279.0 248.7 279.5Q247.8 280.0 247.3 280.9Q246.7 281.8 246.7 283.0L246.7 283.0L246.7 293.8ZM261.6 294.1L261.6 294.1Q258.6 294.1 256.5 292.9Q254.4 291.7 253.2 289.5Q252.1 287.3 252.1 284.3L252.1 284.3Q252.1 281.4 253.2 279.1Q254.4 276.9 256.5 275.7Q258.5 274.4 261.4 274.4L261.4 274.4Q263.2 274.4 264.9 275.0Q266.5 275.6 267.7 276.8Q269.0 278.0 269.6 279.9Q270.3 281.7 270.3 284.1L270.3 284.1L270.3 285.6L254.2 285.6L254.2 282.3L265.3 282.3Q265.3 281.1 264.8 280.3Q264.3 279.4 263.5 278.9Q262.6 278.4 261.4 278.4L261.4 278.4Q260.2 278.4 259.3 278.9Q258.4 279.5 257.9 280.4Q257.3 281.3 257.3 282.5L257.3 282.5L257.3 285.6Q257.3 287.0 257.9 288.0Q258.4 289.1 259.4 289.6Q260.3 290.2 261.7 290.2L261.7 290.2Q262.5 290.2 263.3 289.9Q264.0 289.7 264.5 289.2Q265.0 288.7 265.3 288.0L265.3 288.0L270.2 288.3Q269.8 290.1 268.7 291.4Q267.5 292.7 265.7 293.4Q263.9 294.1 261.6 294.1ZM278.8 294.1L278.8 294.1Q276.6 294.1 274.9 292.9Q273.1 291.8 272.1 289.6Q271.1 287.4 271.1 284.2L271.1 284.2Q271.1 281.0 272.1 278.8Q273.2 276.6 274.9 275.5Q276.7 274.4 278.8 274.4L278.8 274.4Q280.4 274.4 281.5 275.0Q282.6 275.5 283.2 276.3Q283.9 277.1 284.2 277.9L284.2 277.9L284.4 277.9L284.4 268.3L289.7 268.3L289.7 293.8L284.5 293.8L284.5 290.7L284.2 290.7Q283.9 291.5 283.2 292.3Q282.5 293.1 281.4 293.6Q280.4 294.1 278.8 294.1ZM280.5 289.9L280.5 289.9Q281.8 289.9 282.7 289.2Q283.6 288.5 284.0 287.2Q284.5 285.9 284.5 284.2L284.5 284.2Q284.5 282.5 284.0 281.3Q283.6 280.0 282.7 279.3Q281.8 278.6 280.5 278.6L280.5 278.6Q279.2 278.6 278.3 279.3Q277.4 280.1 276.9 281.3Q276.5 282.6 276.5 284.2L276.5 284.2Q276.5 285.9 276.9 287.2Q277.4 288.4 278.3 289.1Q279.2 289.9 280.5 289.9Z M305.3 293.8L300.1 293.8L300.1 268.3L305.4 268.3L305.4 277.9L305.5 277.9Q305.9 277.1 306.5 276.3Q307.2 275.5 308.3 275.0Q309.4 274.4 311.0 274.4L311.0 274.4Q313.0 274.4 314.8 275.5Q316.6 276.6 317.6 278.8Q318.7 281.0 318.7 284.2L318.7 284.2Q318.7 287.4 317.7 289.6Q316.6 291.8 314.9 292.9Q313.1 294.1 310.9 294.1L310.9 294.1Q309.4 294.1 308.3 293.6Q307.3 293.1 306.6 292.3Q305.9 291.5 305.5 290.7L305.5 290.7L305.3 290.7L305.3 293.8ZM305.3 284.2L305.3 284.2Q305.3 285.9 305.7 287.2Q306.2 288.5 307.1 289.2Q308.0 289.9 309.3 289.9L309.3 289.9Q310.6 289.9 311.5 289.1Q312.4 288.4 312.8 287.2Q313.3 285.9 313.3 284.2L313.3 284.2Q313.3 282.6 312.8 281.3Q312.4 280.1 311.5 279.3Q310.6 278.6 309.3 278.6L309.3 278.6Q308.0 278.6 307.1 279.3Q306.2 280.0 305.7 281.3Q305.3 282.5 305.3 284.2ZM322.8 300.9L322.8 300.9Q321.8 300.9 321.0 300.8Q320.1 300.6 319.5 300.4L319.5 300.4L320.7 296.4Q321.6 296.7 322.4 296.7Q323.1 296.8 323.7 296.4Q324.2 296.0 324.6 295.1L324.6 295.1L324.9 294.3L318.1 274.7L323.6 274.7L327.6 288.7L327.8 288.7L331.8 274.7L337.4 274.7L330.0 295.8Q329.4 297.4 328.5 298.5Q327.6 299.7 326.2 300.3Q324.8 300.9 322.8 300.9Z M367.4 277.2L367.4 277.2L361.9 277.2Q361.8 276.2 361.3 275.3Q360.9 274.5 360.2 273.9Q359.4 273.3 358.5 273.0Q357.6 272.7 356.5 272.7L356.5 272.7Q354.5 272.7 353.0 273.7Q351.6 274.7 350.8 276.5Q349.9 278.4 349.9 281.0L349.9 281.0Q349.9 283.8 350.8 285.6Q351.6 287.5 353.0 288.4Q354.5 289.3 356.4 289.3L356.4 289.3Q357.5 289.3 358.4 289.1Q359.4 288.8 360.1 288.2Q360.8 287.7 361.3 286.9Q361.8 286.1 361.9 285.1L361.9 285.1L367.4 285.1Q367.2 286.8 366.3 288.5Q365.5 290.1 364.1 291.4Q362.7 292.6 360.7 293.4Q358.8 294.1 356.3 294.1L356.3 294.1Q352.9 294.1 350.3 292.6Q347.6 291.0 346.0 288.1Q344.5 285.2 344.5 281.0L344.5 281.0Q344.5 276.9 346.1 273.9Q347.6 271.0 350.3 269.5Q353.0 268.0 356.3 268.0L356.3 268.0Q358.6 268.0 360.5 268.6Q362.3 269.2 363.8 270.4Q365.3 271.6 366.2 273.3Q367.1 275.0 367.4 277.2ZM374.5 282.7L374.5 282.7L374.5 293.8L369.2 293.8L369.2 268.3L374.3 268.3L374.3 278.0L374.5 278.0Q375.2 276.3 376.6 275.4Q378.1 274.4 380.2 274.4L380.2 274.4Q382.2 274.4 383.7 275.3Q385.2 276.1 386.0 277.8Q386.8 279.4 386.8 281.6L386.8 281.6L386.8 293.8L381.5 293.8L381.5 282.5Q381.6 280.8 380.6 279.8Q379.7 278.8 378.1 278.8L378.1 278.8Q377.1 278.8 376.2 279.3Q375.4 279.7 374.9 280.6Q374.5 281.5 374.5 282.7ZM394.5 294.1L394.5 294.1Q392.6 294.1 391.2 293.5Q389.8 292.8 388.9 291.6Q388.1 290.3 388.1 288.4L388.1 288.4Q388.1 286.8 388.7 285.8Q389.3 284.7 390.3 284.0Q391.3 283.4 392.6 283.0Q393.9 282.7 395.3 282.5L395.3 282.5Q397.0 282.4 398.0 282.2Q399.0 282.1 399.4 281.8Q399.9 281.4 399.9 280.8L399.9 280.8L399.9 280.8Q399.9 279.6 399.2 278.9Q398.4 278.3 397.1 278.3L397.1 278.3Q395.6 278.3 394.8 278.9Q394.0 279.5 393.7 280.5L393.7 280.5L388.8 280.1Q389.2 278.3 390.3 277.1Q391.3 275.8 393.1 275.1Q394.8 274.4 397.1 274.4L397.1 274.4Q398.7 274.4 400.2 274.8Q401.6 275.2 402.7 275.9Q403.9 276.7 404.5 278.0Q405.2 279.2 405.2 280.9L405.2 280.9L405.2 293.8L400.2 293.8L400.2 291.1L400.0 291.1Q399.6 292.0 398.8 292.7Q398.0 293.4 397.0 293.7Q395.9 294.1 394.5 294.1ZM396.0 290.5L396.0 290.5Q397.1 290.5 398.0 290.0Q398.9 289.5 399.4 288.7Q399.9 287.9 399.9 286.9L399.9 286.9L399.9 284.9Q399.7 285.1 399.3 285.2Q398.8 285.3 398.3 285.4Q397.8 285.5 397.2 285.6Q396.7 285.7 396.3 285.8L396.3 285.8Q395.3 285.9 394.6 286.2Q393.9 286.5 393.6 287.0Q393.2 287.5 393.2 288.3L393.2 288.3Q393.2 289.3 394.0 289.9Q394.8 290.5 396.0 290.5ZM406.0 274.7L417.5 274.7L417.5 278.6L406.0 278.6L406.0 274.7ZM408.6 288.6L408.6 270.1L413.9 270.1L413.9 287.9Q413.9 288.6 414.1 289.0Q414.3 289.4 414.7 289.6Q415.1 289.8 415.7 289.8L415.7 289.8Q416.0 289.8 416.4 289.7Q416.8 289.6 417.0 289.6L417.0 289.6L417.8 293.5Q417.4 293.6 416.7 293.8Q416.0 294.0 414.9 294.0L414.9 294.0Q413.0 294.1 411.6 293.5Q410.2 292.9 409.4 291.7Q408.6 290.5 408.6 288.6L408.6 288.6ZM441.4 276.5L435.9 276.5Q435.6 275.6 435.2 274.9Q434.7 274.2 434.0 273.7Q433.3 273.2 432.5 273.0Q431.6 272.7 430.6 272.7L430.6 272.7Q428.6 272.7 427.1 273.7Q425.7 274.7 424.8 276.5Q424.0 278.3 424.0 281.0L424.0 281.0Q424.0 283.7 424.8 285.5Q425.6 287.4 427.1 288.4Q428.6 289.3 430.6 289.3L430.6 289.3Q432.4 289.3 433.7 288.7Q435.0 288.0 435.7 286.8Q436.4 285.7 436.4 284.0L436.4 284.0L437.5 284.2L430.9 284.2L430.9 280.1L441.6 280.1L441.6 283.3Q441.6 286.7 440.2 289.1Q438.8 291.5 436.3 292.8Q433.8 294.1 430.6 294.1L430.6 294.1Q427.0 294.1 424.3 292.5Q421.6 290.9 420.1 288.0Q418.6 285.1 418.6 281.1L418.6 281.1Q418.6 278.0 419.5 275.5Q420.4 273.1 422.0 271.4Q423.6 269.7 425.8 268.8Q428.0 268.0 430.5 268.0L430.5 268.0Q432.6 268.0 434.5 268.6Q436.4 269.2 437.8 270.4Q439.3 271.5 440.2 273.1Q441.1 274.6 441.4 276.5L441.4 276.5ZM449.0 293.8L443.6 293.8L443.6 268.3L453.7 268.3Q456.6 268.3 458.6 269.4Q460.7 270.5 461.7 272.5Q462.8 274.4 462.8 276.9L462.8 276.9Q462.8 279.5 461.7 281.4Q460.6 283.3 458.5 284.4Q456.5 285.5 453.5 285.5L453.5 285.5L447.1 285.5L447.1 281.2L452.7 281.2Q454.2 281.2 455.2 280.7Q456.3 280.1 456.8 279.1Q457.3 278.2 457.3 276.9L457.3 276.9Q457.3 275.7 456.8 274.7Q456.3 273.8 455.2 273.2Q454.2 272.7 452.6 272.7L452.6 272.7L449.0 272.7L449.0 293.8ZM471.1 272.7L463.3 272.7L463.3 268.3L484.2 268.3L484.2 272.7L476.5 272.7L476.5 293.8L471.1 293.8L471.1 272.7ZM484.1 281.2L495.7 281.2L495.7 285.4L484.1 285.4L484.1 281.2ZM507.5 294.1L507.5 294.1Q504.7 294.1 502.5 293.1Q500.3 292.2 499.1 290.5Q497.8 288.8 497.8 286.6L497.8 286.6L503.2 286.6Q503.3 287.5 503.8 288.2Q504.4 288.9 505.3 289.3Q506.3 289.7 507.5 289.7L507.5 289.7Q508.7 289.7 509.6 289.2Q510.6 288.8 511.1 288.0Q511.7 287.3 511.7 286.3L511.7 286.3Q511.7 285.2 511.1 284.4Q510.5 283.7 509.5 283.2Q508.4 282.8 507.0 282.8L507.0 282.8L504.6 282.8L504.6 278.8L507.0 278.8Q508.2 278.8 509.1 278.4Q510.1 278.0 510.6 277.2Q511.1 276.5 511.1 275.5L511.1 275.5Q511.1 274.5 510.7 273.8Q510.2 273.0 509.4 272.6Q508.6 272.2 507.5 272.2L507.5 272.2Q506.4 272.2 505.5 272.6Q504.6 273.0 504.0 273.7Q503.5 274.4 503.5 275.4L503.5 275.4L498.3 275.4Q498.3 273.2 499.6 271.5Q500.8 269.9 502.8 268.9Q504.9 268.0 507.5 268.0L507.5 268.0Q510.2 268.0 512.1 268.9Q514.1 269.9 515.2 271.5Q516.3 273.1 516.3 275.1L516.3 275.1Q516.3 277.3 515.0 278.7Q513.6 280.1 511.5 280.5L511.5 280.5L511.5 280.7Q514.3 281.1 515.8 282.7Q517.3 284.2 517.2 286.6L517.2 286.6Q517.3 288.8 516.0 290.5Q514.7 292.2 512.5 293.1Q510.3 294.1 507.5 294.1ZM521.5 294.1L521.5 294.1Q520.3 294.1 519.4 293.2Q518.6 292.3 518.6 291.1L518.6 291.1Q518.6 289.9 519.4 289.0Q520.3 288.1 521.5 288.1L521.5 288.1Q522.7 288.1 523.6 289.0Q524.5 289.9 524.5 291.1L524.5 291.1Q524.5 291.9 524.1 292.6Q523.7 293.3 523.0 293.7Q522.3 294.1 521.5 294.1ZM535.9 294.1L535.9 294.1Q533.3 294.1 531.2 293.1Q529.2 292.2 527.9 290.5Q526.7 288.8 526.7 286.6L526.7 286.6L531.9 286.6Q532.0 288.0 533.2 289.0Q534.3 289.9 535.9 289.9L535.9 289.9Q537.2 289.9 538.1 289.3Q539.1 288.8 539.7 287.7Q540.2 286.7 540.2 285.4L540.2 285.4Q540.2 284.1 539.7 283.0Q539.1 282.0 538.1 281.5Q537.1 280.9 535.8 280.9L535.8 280.9Q534.7 280.9 533.7 281.3Q532.6 281.8 532.0 282.6L532.0 282.6L527.2 281.7L528.4 268.3L544.0 268.3L544.0 272.7L532.9 272.7L532.2 279.1L532.4 279.1Q533.0 278.1 534.4 277.5Q535.8 276.9 537.4 276.9L537.4 276.9Q539.7 276.9 541.5 278.0Q543.3 279.1 544.4 280.9Q545.4 282.8 545.4 285.3L545.4 285.3Q545.4 287.8 544.2 289.8Q543.0 291.8 540.9 293.0Q538.7 294.1 535.9 294.1ZM547.5 281.2L559.1 281.2L559.1 285.4L547.5 285.4L547.5 281.2ZM560.3 274.7L571.8 274.7L571.8 278.6L560.3 278.6L560.3 274.7ZM562.9 288.6L562.9 270.1L568.2 270.1L568.2 287.9Q568.2 288.6 568.4 289.0Q568.6 289.4 569.0 289.6Q569.4 289.8 570.0 289.8L570.0 289.8Q570.3 289.8 570.7 289.7Q571.1 289.6 571.3 289.6L571.3 289.6L572.1 293.5Q571.7 293.6 571.0 293.8Q570.3 294.0 569.3 294.0L569.3 294.0Q567.3 294.1 565.9 293.5Q564.5 292.9 563.7 291.7Q562.9 290.5 562.9 288.6L562.9 288.6ZM585.5 285.6L585.5 285.6L585.5 274.7L590.8 274.7L590.8 293.8L585.7 293.8L585.7 290.3L585.5 290.3Q584.8 292.0 583.3 293.0Q581.8 294.0 579.7 294.0L579.7 294.0Q577.8 294.0 576.3 293.1Q574.9 292.3 574.0 290.7Q573.2 289.1 573.2 286.8L573.2 286.8L573.2 274.7L578.5 274.7L578.5 285.9Q578.5 287.6 579.4 288.6Q580.3 289.5 581.8 289.5L581.8 289.5Q582.8 289.5 583.6 289.1Q584.4 288.7 585.0 287.8Q585.5 286.9 585.5 285.6ZM598.3 293.8L593.0 293.8L593.0 274.7L598.1 274.7L598.1 278.0L598.3 278.0Q598.8 276.2 600.1 275.3Q601.3 274.4 602.9 274.4L602.9 274.4Q603.3 274.4 603.8 274.4Q604.2 274.5 604.6 274.6L604.6 274.6L604.6 279.3Q604.2 279.2 603.5 279.1Q602.9 279.0 602.3 279.0L602.3 279.0Q601.2 279.0 600.2 279.5Q599.3 280.0 598.8 280.9Q598.3 281.8 598.3 283.0L598.3 283.0L598.3 293.8ZM610.6 293.8L605.4 293.8L605.4 268.3L610.7 268.3L610.7 277.9L610.8 277.9Q611.2 277.1 611.9 276.3Q612.5 275.5 613.6 275.0Q614.7 274.4 616.3 274.4L616.3 274.4Q618.4 274.4 620.1 275.5Q621.9 276.6 622.9 278.8Q624.0 281.0 624.0 284.2L624.0 284.2Q624.0 287.4 623.0 289.6Q622.0 291.8 620.2 292.9Q618.4 294.1 616.3 294.1L616.3 294.1Q614.7 294.1 613.6 293.6Q612.6 293.1 611.9 292.3Q611.2 291.5 610.8 290.7L610.8 290.7L610.6 290.7L610.6 293.8ZM610.6 284.2L610.6 284.2Q610.6 285.9 611.0 287.2Q611.5 288.5 612.4 289.2Q613.3 289.9 614.6 289.9L614.6 289.9Q615.9 289.9 616.8 289.1Q617.7 288.4 618.1 287.2Q618.6 285.9 618.6 284.2L618.6 284.2Q618.6 282.6 618.1 281.3Q617.7 280.1 616.8 279.3Q615.9 278.6 614.6 278.6L614.6 278.6Q613.3 278.6 612.4 279.3Q611.5 280.0 611.0 281.3Q610.6 282.5 610.6 284.2ZM634.1 294.1L634.1 294.1Q631.3 294.1 629.1 292.9Q627.0 291.7 625.9 289.4Q624.8 287.2 624.8 284.3L624.8 284.3Q624.8 281.3 625.9 279.1Q627.0 276.9 629.1 275.7Q631.3 274.4 634.1 274.4L634.1 274.4Q637.0 274.4 639.2 275.7Q641.3 276.9 642.4 279.1Q643.5 281.3 643.5 284.3L643.5 284.3Q643.5 287.2 642.4 289.4Q641.3 291.7 639.2 292.9Q637.0 294.1 634.1 294.1ZM634.2 290.0L634.2 290.0Q635.5 290.0 636.4 289.3Q637.3 288.5 637.7 287.2Q638.2 285.9 638.2 284.3L638.2 284.3Q638.2 282.6 637.7 281.3Q637.3 280.0 636.4 279.2Q635.5 278.5 634.2 278.5L634.2 278.5Q632.8 278.5 631.9 279.2Q631.0 280.0 630.6 281.3Q630.1 282.6 630.1 284.3L630.1 284.3Q630.1 285.9 630.6 287.2Q631.0 288.5 631.9 289.3Q632.8 290.0 634.2 290.0Z "/></clipPath><defs><pattern id="satori_pattern_id-4_0" x="0" y="0" width="1" height="1" patternUnits="objectBoundingBox"><linearGradient id="satori_biid-4_0" x1="0" y1="0" x2="1" y2="0"><stop offset="0%" stop-color="rgb(255,77,77)"/><stop offset="100%" stop-color="rgb(249,203,40)"/></linearGradient><rect x="0" y="0" width="492" height="43" fill="url(#satori_biid-4_0)"/></pattern></defs><rect x="154" y="261" width="492" height="43" fill="url(#satori_pattern_id-4_0)" clip-path="url(#satori_bct-id-4)"/></svg>